<?xml version="1.0" encoding="UTF-8"?>
<svg version="1.1" xmlns="http://www.w3.org/2000/svg" width="202" height="65">
<path d="M0 0 C2.64 0 5.28 0 8 0 C8.33 5.28 8.66 10.56 9 16 C11.64 16 14.28 16 17 16 C20.09710563 17.53973752 22.43804969 19.87609938 24 23 C24.33 15.41 24.66 7.82 25 0 C27.64 0 30.28 0 33 0 C33 5.28 33 10.56 33 16 C35.64 16 38.28 16 41 16 C43.8100346 17.79363911 45.50940468 19.01880935 47 22 C47.33 20.02 47.66 18.04 48 16 C50.7708983 15.97303991 53.5415345 15.95318048 56.3125 15.9375 C57.09818359 15.92912109 57.88386719 15.92074219 58.69335938 15.91210938 C59.45068359 15.90888672 60.20800781 15.90566406 60.98828125 15.90234375 C61.68477783 15.89710693 62.38127441 15.89187012 63.09887695 15.88647461 C65 16 65 16 68 17 C68.99 16.505 68.99 16.505 70 16 C73.78566792 15.47000649 77.44856036 15.16978747 80.890625 17.01171875 C83.54687096 19.15863599 84.91374058 20.74122173 86 24 C86.23062719 27.62104069 86.18516562 31.24737685 86.1875 34.875 C86.19974609 35.86886719 86.21199219 36.86273438 86.22460938 37.88671875 C86.22654297 38.84964844 86.22847656 39.81257813 86.23046875 40.8046875 C86.23457764 41.68108887 86.23868652 42.55749023 86.24291992 43.46044922 C85.97318662 46.28031437 85.1102459 48.40878453 84 51 C84 51.66 84 52.32 84 53 C83.01 53 82.02 53 81 53 C81.33 51.35 81.66 49.7 82 48 C81.01 48 80.02 48 79 48 C75.34888335 41.45841601 75.70112406 35.36120371 76 28 C75.67 29.98 75.34 31.96 75 34 C74.34 34 73.68 34 73 34 C72.93941406 34.86882813 72.87882812 35.73765625 72.81640625 36.6328125 C72.69072266 38.36144531 72.69072266 38.36144531 72.5625 40.125 C72.48128906 41.26195312 72.40007812 42.39890625 72.31640625 43.5703125 C72.02262675 46.75473724 71.52537217 49.84776696 71 53 C70.96237049 55.33302989 70.95334266 57.66713319 71 60 C70.01 60 69.02 60 68 60 C68 58.02 68 56.04 68 54 C67.34 54 66.68 54 66 54 C66 52.02 66 50.04 66 48 C65.34 48 64.68 48 64 48 C63 45 63 45 63 43 C62.01 42.67 61.02 42.34 60 42 C60 37.71 60 33.42 60 29 C59.67 30.98 59.34 32.96 59 35 C58.34 35 57.68 35 57 35 C57.02320313 35.77085938 57.04640625 36.54171875 57.0703125 37.3359375 C57.08835938 38.33882812 57.10640625 39.34171875 57.125 40.375 C57.14820313 41.37273438 57.17140625 42.37046875 57.1953125 43.3984375 C57 46 57 46 55 48 C54.35232207 50.57061311 54.35232207 50.57061311 54 53 C53.01 52.67 52.02 52.34 51 52 C51.33 50.68 51.66 49.36 52 48 C50.68 47.67 49.36 47.34 48 47 C47.34 49.31 46.68 51.62 46 54 C45.34 54 44.68 54 44 54 C43.67 56.31 43.34 58.62 43 61 C42.01 60.67 41.02 60.34 40 60 C39.67 49.77 39.34 39.54 39 29 C39 29.99 39 30.98 39 32 C38.34 32 37.68 32 37 32 C36.67 30.35 36.34 28.7 36 27 C36 30.96 36 34.92 36 39 C35.01 39 34.02 39 33 39 C33 45.6 33 52.2 33 59 C31.515 59.495 31.515 59.495 30 60 C29.67 58.02 29.34 56.04 29 54 C28.34 54 27.68 54 27 54 C25.1582605 48.35199888 24.45224761 42.91492272 24 37 C22.0830427 42.62257161 21.75110076 47.52369385 21.875 53.4375 C21.88402344 54.26443359 21.89304687 55.09136719 21.90234375 55.94335938 C21.92568488 57.96236708 21.96154712 59.98122356 22 62 C20.515 62.495 20.515 62.495 19 63 C16.35187637 57.2364368 17.1980251 52.09067424 18 46 C17.34 46.66 16.68 47.32 16 48 C16 49.32 16 50.64 16 52 C15.01 51.67 14.02 51.34 13 51 C13.33 49.68 13.66 48.36 14 47 C13.34 47 12.68 47 12 47 C12 48.98 12 50.96 12 53 C11.34 53 10.68 53 10 53 C10 52.34 10 51.68 10 51 C9.34 51 8.68 51 8 51 C7.67 51 7.34 51 7 51 C7 52.65 7 54.3 7 56 C6.01 56 5.02 56 4 56 C4 54.35 4 52.7 4 51 C3.34 51 2.68 51 2 51 C2 49.68 2 48.36 2 47 C1.34 47 0.68 47 0 47 C0 31.49 0 15.98 0 0 Z M13 25 C11.14223235 28.13498292 10.79859524 30.37471432 11 34 C10.34 34 9.68 34 9 34 C8.67 33.01 8.34 32.02 8 31 C8 32.65 8 34.3 8 36 C11.47262619 37.08943338 11.47262619 37.08943338 14.8125 36.0625 C16.70943762 32.76781888 16.18480076 29.75761536 16 26 C15.01 25.67 14.02 25.34 13 25 Z M9 27 C10 31 10 31 10 31 Z M33 29 C33 30.65 33 32.3 33 34 C33.33 34 33.66 34 34 34 C34 32.35 34 30.7 34 29 C33.67 29 33.34 29 33 29 Z M57 29 C58 31 58 31 58 31 Z M4 46 C3.67 47.32 3.34 48.64 3 50 C3.99 50.495 3.99 50.495 5 51 C5 49.35 5 47.7 5 46 C4.67 46 4.34 46 4 46 Z " fill="#000000" transform="translate(43,0)"/>
<path d="M0 0 C0.90234375 -0.03673828 1.8046875 -0.07347656 2.734375 -0.11132812 C9.21002236 -0.15443525 9.21002236 -0.15443525 11.515625 1.93798828 C12.625 3.59765625 12.625 3.59765625 14 6.5625 C14.474375 5.5725 14.94875 4.5825 15.4375 3.5625 C18 0.5625 18 0.5625 20.26953125 0.1640625 C22.53871994 0.18550365 24.74627444 0.30245474 27 0.5625 C25.70973864 5.25435947 23.71695886 8.71730137 20.92578125 12.6328125 C19.80551359 14.52202682 19.80551359 14.52202682 20.2578125 16.6328125 C21.22134029 19.13798476 22.55779795 21.30514027 24 23.5625 C23.97679687 22.92183594 23.95359375 22.28117187 23.9296875 21.62109375 C23.78649188 14.75793213 23.78949409 9.10458179 28.5 3.6875 C32.02121803 0.69446467 34.2749942 0.13203539 38.95703125 0.234375 C41 0.5625 41 0.5625 44 2.4375 C46.75248588 6.73825918 46.8037907 10.57053668 46 15.5625 C44 18.5625 44 18.5625 43 19.5625 C43.99 19.5625 44.98 19.5625 46 19.5625 C45.63546681 23.29896518 44.87582516 26.01631785 42.9375 29.1875 C40.66808832 32.49206914 40.66808832 32.49206914 41 36.5625 C40.01 36.5625 39.02 36.5625 38 36.5625 C38.33 34.9125 38.66 33.2625 39 31.5625 C38.01 32.0575 38.01 32.0575 37 32.5625 C37 38.1725 37 43.7825 37 49.5625 C35.68 49.2325 34.36 48.9025 33 48.5625 C32.88730557 42.4519576 33.10395632 36.61079486 34 30.5625 C33.34 30.5625 32.68 30.5625 32 30.5625 C32 33.2025 32 35.8425 32 38.5625 C31.01 38.8925 30.02 39.2225 29 39.5625 C29 36.5925 29 33.6225 29 30.5625 C28.01 30.5625 27.02 30.5625 26 30.5625 C26 31.2225 26 31.8825 26 32.5625 C25.01 32.5625 24.02 32.5625 23 32.5625 C23.495 34.5425 23.495 34.5425 24 36.5625 C23.01 36.8925 22.02 37.2225 21 37.5625 C21 40.2025 21 42.8425 21 45.5625 C20.01 45.8925 19.02 46.2225 18 46.5625 C18 42.2725 18 37.9825 18 33.5625 C17.34 33.5625 16.68 33.5625 16 33.5625 C15.505 31.5825 15.505 31.5825 15 29.5625 C15 32.8625 15 36.1625 15 39.5625 C14.01 39.5625 13.02 39.5625 12 39.5625 C12 36.2625 12 32.9625 12 29.5625 C11.67 31.2125 11.34 32.8625 11 34.5625 C10.34 34.5625 9.68 34.5625 9 34.5625 C9.495 38.5225 9.495 38.5225 10 42.5625 C8.68 42.5625 7.36 42.5625 6 42.5625 C6 39.2625 6 35.9625 6 32.5625 C5.67 34.2125 5.34 35.8625 5 37.5625 C4.34 37.5625 3.68 37.5625 3 37.5625 C3.33 35.9125 3.66 34.2625 4 32.5625 C3.01 32.5625 2.02 32.5625 1 32.5625 C0.67 31.9025 0.34 31.2425 0 30.5625 C-1.57273568 33.4049854 -1.57273568 33.4049854 -2 36.5625 C-2.66 36.5625 -3.32 36.5625 -4 36.5625 C-4 34.9125 -4 33.2625 -4 31.5625 C-4.66 31.5625 -5.32 31.5625 -6 31.5625 C-6.08409303 35.76715126 -6.13070447 39.77827321 -5.4375 43.9375 C-5 46.5625 -5 46.5625 -6 49.5625 C-7.32 49.2325 -8.64 48.9025 -10 48.5625 C-10 42.6225 -10 36.6825 -10 30.5625 C-10.33 33.5325 -10.66 36.5025 -11 39.5625 C-11.99 39.2325 -12.98 38.9025 -14 38.5625 C-13.67 35.9225 -13.34 33.2825 -13 30.5625 C-13.99 30.5625 -14.98 30.5625 -16 30.5625 C-16.33 29.5725 -16.66 28.5825 -17 27.5625 C-18.25384913 30.07019825 -18.06495448 31.7694575 -18 34.5625 C-17.88888889 39.34027778 -17.88888889 39.34027778 -19 41.5625 C-19.66 41.5625 -20.32 41.5625 -21 41.5625 C-21.33 39.2525 -21.66 36.9425 -22 34.5625 C-22.66 34.5625 -23.32 34.5625 -24 34.5625 C-24 32.5825 -24 30.6025 -24 28.5625 C-24.66 28.5625 -25.32 28.5625 -26 28.5625 C-26 25.5925 -26 22.6225 -26 19.5625 C-22.535 19.0675 -22.535 19.0675 -19 18.5625 C-18.97421875 17.98242188 -18.9484375 17.40234375 -18.921875 16.8046875 C-18.46305332 10.48546157 -17.06936113 6.27455311 -12.15234375 1.92993164 C-8.37766013 -0.46820844 -4.35867471 0.00934002 0 0 Z M-7 8.5625 C-7.33 9.2225 -7.66 9.8825 -8 10.5625 C-7.01 10.5625 -6.02 10.5625 -5 10.5625 C-5 9.9025 -5 9.2425 -5 8.5625 C-5.66 8.5625 -6.32 8.5625 -7 8.5625 Z M4 8.5625 C4 10.8725 4 13.1825 4 15.5625 C2.68 15.8925 1.36 16.2225 0 16.5625 C0 17.5525 0 18.5425 0 19.5625 C0.99 19.8925 1.98 20.2225 3 20.5625 C3.6875 22.625 3.6875 22.625 4 24.5625 C6.0616662 21.68530128 7.84640767 18.92227122 9 15.5625 C8.21651522 12.53813916 6.97559353 11.07203772 5 8.5625 C4.67 8.5625 4.34 8.5625 4 8.5625 Z M36 8.5625 C35.67 9.2225 35.34 9.8825 35 10.5625 C35.99 10.2325 36.98 9.9025 38 9.5625 C37.34 9.2325 36.68 8.9025 36 8.5625 Z M-6 15.5625 C-6.33 16.8825 -6.66 18.2025 -7 19.5625 C-4.50907189 20.80796405 -3.58919267 20.3392578 -1 19.5625 C-1.33 18.2425 -1.66 16.9225 -2 15.5625 C-3.32 15.5625 -4.64 15.5625 -6 15.5625 Z M36 16.5625 C36 17.8825 36 19.2025 36 20.5625 C37.98 20.2325 39.96 19.9025 42 19.5625 C41.67 18.2425 41.34 16.9225 41 15.5625 C38.78918149 15.45709074 38.78918149 15.45709074 36 16.5625 Z M34 16.5625 C35 18.5625 35 18.5625 35 18.5625 Z M34 19.5625 C35 21.5625 35 21.5625 35 21.5625 Z M2 24.5625 C3 26.5625 3 26.5625 3 26.5625 Z M0 27.5625 C1 29.5625 1 29.5625 1 29.5625 Z M20 31.5625 C20 33.2125 20 34.8625 20 36.5625 C20.66 35.2425 21.32 33.9225 22 32.5625 C21.34 32.2325 20.68 31.9025 20 31.5625 Z " fill="#000000" transform="translate(156,15.4375)"/>
<path d="M0 0 C2.97 0 5.94 0 9 0 C9 5.28 9 10.56 9 16 C11.31 16 13.62 16 16 16 C19.5241787 18.1928223 21.48216606 20.16520483 23 24 C23.22705078 26.65722656 23.22705078 26.65722656 23.1953125 29.640625 C23.18886719 30.71054687 23.18242188 31.78046875 23.17578125 32.8828125 C23.15902344 33.99398437 23.14226563 35.10515625 23.125 36.25 C23.11597656 37.37664063 23.10695312 38.50328125 23.09765625 39.6640625 C23.07410658 42.44292365 23.0412168 45.2213539 23 48 C22.34 48 21.68 48 21 48 C21 49.98 21 51.96 21 54 C20.34 54 19.68 54 19 54 C19 55.98 19 57.96 19 60 C18.01 60.33 17.02 60.66 16 61 C15.01 46.645 15.01 46.645 14 32 C13.34 32 12.68 32 12 32 C11.67 34.31 11.34 36.62 11 39 C10.34 39 9.68 39 9 39 C9.020625 39.969375 9.04125 40.93875 9.0625 41.9375 C9.0700115 45.64066813 8.66834632 49.23792117 8.22265625 52.91015625 C7.96973833 55.28403501 7.92304954 57.61453566 8 60 C7.01 60 6.02 60 5 60 C5 56.04 5 52.08 5 48 C4.67 49.98 4.34 51.96 4 54 C3.34 54 2.68 54 2 54 C2.33 52.02 2.66 50.04 3 48 C1.68 47.34 0.36 46.68 -1 46 C-1.33 50.95 -1.66 55.9 -2 61 C-2.99 61 -3.98 61 -5 61 C-5.33 62.32 -5.66 63.64 -6 65 C-6.99 64.67 -7.98 64.34 -9 64 C-9 58.72 -9 53.44 -9 48 C-9.33 50.64 -9.66 53.28 -10 56 C-10.66 56 -11.32 56 -12 56 C-12.33 53.69 -12.66 51.38 -13 49 C-13.33 49 -13.66 49 -14 49 C-14.495 51.475 -14.495 51.475 -15 54 C-15.66 53.67 -16.32 53.34 -17 53 C-16.505 50.03 -16.505 50.03 -16 47 C-16.66 47 -17.32 47 -18 47 C-18.33 44.36 -18.66 41.72 -19 39 C-15.55930376 36.70620251 -14.27709699 36 -10 36 C-10.928125 35.443125 -11.85625 34.88625 -12.8125 34.3125 C-16.02704064 31.98038228 -17.45296521 30.60974785 -19 27 C-19.4375 23.9375 -19.4375 23.9375 -19 21 C-17.1329009 18.69724444 -15.64352259 17.32176129 -13 16 C-7.21963333 15.55535641 -5.53026832 16.23486584 0 19 C0 12.73 0 6.46 0 0 Z M-1 21 C-1.598125 21.639375 -2.19625 22.27875 -2.8125 22.9375 C-5.00848528 25.00800041 -6.08103389 25.58300484 -9 26 C-8.071875 26.5775 -7.14375 27.155 -6.1875 27.75 C-3 30 -3 30 0 34 C0 29.71 0 25.42 0 21 C-0.33 21 -0.66 21 -1 21 Z M-5 45 C-6.00109515 48.31070838 -6.10356134 51.30084769 -6.0625 54.75 C-6.05347656 55.73484375 -6.04445313 56.7196875 -6.03515625 57.734375 C-6.02355469 58.48203125 -6.01195312 59.2296875 -6 60 C-5.67 60 -5.34 60 -5 60 C-4.66223316 58.2508503 -4.32996329 56.50063855 -4 54.75 C-3.814375 53.77546875 -3.62875 52.8009375 -3.4375 51.796875 C-2.89696983 48.81315721 -2.89696983 48.81315721 -3 45 C-3.66 45 -4.32 45 -5 45 Z " fill="#000000" transform="translate(19,0)"/>
</svg>
