<?xml version="1.0" encoding="UTF-8"?>
<!DOCTYPE svg PUBLIC "-//W3C//DTD SVG 1.1//EN" "http://www.w3.org/Graphics/SVG/1.1/DTD/svg11.dtd">
<svg xmlns="http://www.w3.org/2000/svg" version="1.1" width="699px" height="357px" style="shape-rendering:geometricPrecision; text-rendering:geometricPrecision; image-rendering:optimizeQuality; fill-rule:evenodd; clip-rule:evenodd" xmlns:xlink="http://www.w3.org/1999/xlink">
<g><path style="opacity:1" fill="#53529e" d="M 393.5,64.5 C 387.484,64.0981 381.484,63.4314 375.5,62.5C 370.684,62.4226 366.018,63.0893 361.5,64.5C 361.5,65.8333 361.5,67.1667 361.5,68.5C 359.173,68.3354 357.007,67.6687 355,66.5C 350.724,67.0311 346.557,68.0311 342.5,69.5C 343.093,71.3817 343.76,73.2151 344.5,75C 344.167,75.3333 343.833,75.6667 343.5,76C 345.718,77.7209 347.385,79.8876 348.5,82.5C 350.604,83.2776 352.938,84.2776 355.5,85.5C 355.5,86.8333 355.5,88.1667 355.5,89.5C 363.911,88.1994 371.245,84.6994 377.5,79C 382.534,77.8938 387.534,76.7272 392.5,75.5C 391.306,76.2719 390.306,77.2719 389.5,78.5C 378.606,83.1142 367.606,87.4476 356.5,91.5C 352.18,92.0391 348.013,92.0391 344,91.5C 342.667,94.1667 341.333,94.1667 340,91.5C 339.505,89.5273 339.338,87.5273 339.5,85.5C 336.221,84.9694 334.887,82.9694 335.5,79.5C 334.5,79.5 333.5,79.5 332.5,79.5C 332.66,77.8008 332.494,76.1341 332,74.5C 329.541,75.6489 327.041,75.6489 324.5,74.5C 325.167,73.5 325.833,72.5 326.5,71.5C 348.009,60.5911 370.343,58.2578 393.5,64.5 Z"/></g>
<g><path style="opacity:0.051" fill="#b2adcf" d="M 392.5,75.5 C 393.5,75.5 394.5,75.5 395.5,75.5C 393.819,77.0075 391.819,78.0075 389.5,78.5C 390.306,77.2719 391.306,76.2719 392.5,75.5 Z"/></g>
<g><path style="opacity:1" fill="#4559a9" d="M 324.5,74.5 C 327.041,75.6489 329.541,75.6489 332,74.5C 332.494,76.1341 332.66,77.8008 332.5,79.5C 333.5,79.5 334.5,79.5 335.5,79.5C 334.887,82.9694 336.221,84.9694 339.5,85.5C 339.338,87.5273 339.505,89.5273 340,91.5C 341.333,94.1667 342.667,94.1667 344,91.5C 348.013,92.0391 352.18,92.0391 356.5,91.5C 354.898,93.0739 352.898,93.7406 350.5,93.5C 345.401,93.7957 340.567,95.129 336,97.5C 335.055,97.0946 334.388,96.428 334,95.5C 332.035,99.475 328.868,101.308 324.5,101C 323.929,99.7949 323.262,98.6283 322.5,97.5C 320.922,98.6405 319.256,99.1405 317.5,99C 318.022,98.4387 318.355,97.772 318.5,97C 317.536,93.1065 316.369,89.2731 315,85.5C 311.922,89.8752 308.422,90.3752 304.5,87C 307.167,85.6667 309.167,83.6667 310.5,81C 312.577,80.8078 314.577,80.3078 316.5,79.5C 319.162,77.6089 321.828,75.9422 324.5,74.5 Z"/></g>
<g><path style="opacity:0.997" fill="#4b3e92" d="M 393.5,64.5 C 398.714,64.9404 403.381,66.7737 407.5,70C 404.11,73.1957 400.11,75.029 395.5,75.5C 394.5,75.5 393.5,75.5 392.5,75.5C 387.534,76.7272 382.534,77.8938 377.5,79C 371.245,84.6994 363.911,88.1994 355.5,89.5C 355.5,88.1667 355.5,86.8333 355.5,85.5C 352.938,84.2776 350.604,83.2776 348.5,82.5C 347.385,79.8876 345.718,77.7209 343.5,76C 343.833,75.6667 344.167,75.3333 344.5,75C 343.76,73.2151 343.093,71.3817 342.5,69.5C 346.557,68.0311 350.724,67.0311 355,66.5C 357.007,67.6687 359.173,68.3354 361.5,68.5C 361.5,67.1667 361.5,65.8333 361.5,64.5C 366.018,63.0893 370.684,62.4226 375.5,62.5C 381.484,63.4314 387.484,64.0981 393.5,64.5 Z"/></g>
<g><path style="opacity:1" fill="#4a67b0" d="M 326.5,71.5 C 325.833,72.5 325.167,73.5 324.5,74.5C 321.828,75.9422 319.162,77.6089 316.5,79.5C 314.577,80.3078 312.577,80.8078 310.5,81C 309.167,83.6667 307.167,85.6667 304.5,87C 308.422,90.3752 311.922,89.8752 315,85.5C 316.369,89.2731 317.536,93.1065 318.5,97C 318.355,97.772 318.022,98.4387 317.5,99C 319.256,99.1405 320.922,98.6405 322.5,97.5C 323.262,98.6283 323.929,99.7949 324.5,101C 328.868,101.308 332.035,99.475 334,95.5C 334.388,96.428 335.055,97.0946 336,97.5C 340.567,95.129 345.401,93.7957 350.5,93.5C 342.599,97.9462 334.265,101.613 325.5,104.5C 324.502,114.144 324.168,123.81 324.5,133.5C 323.3,136.692 322.3,139.359 321.5,141.5C 321.41,137.976 320.743,134.31 319.5,130.5C 314.091,123.352 308.924,116.018 304,108.5C 302.89,106.603 302.724,104.77 303.5,103C 301.473,100.973 299.473,98.973 297.5,97C 301.517,95.3386 301.35,94.1719 297,93.5C 296.167,93.6667 295.333,93.8333 294.5,94C 295.654,94.9138 295.487,95.7471 294,96.5C 293.329,95.7476 292.496,95.4142 291.5,95.5C 292.6,94.3951 293.267,93.0618 293.5,91.5C 303.06,82.5492 314.06,75.8825 326.5,71.5 Z"/></g>
<g><path style="opacity:1" fill="#406db8" d="M 321.5,141.5 C 321.429,144.597 321.262,147.93 321,151.5C 320.147,149.875 319.147,149.542 318,150.5C 318.921,145.102 316.754,142.769 311.5,143.5C 310.373,137.577 307.873,132.243 304,127.5C 303.549,129.929 302.715,130.096 301.5,128C 302.574,127.261 303.241,126.261 303.5,125C 300.714,120.36 297.714,115.86 294.5,111.5C 293.451,108.92 292.784,106.254 292.5,103.5C 291.621,102.424 289.954,101.59 287.5,101C 288.38,99.6439 288.714,98.1439 288.5,96.5C 289.791,96.7373 290.791,96.404 291.5,95.5C 292.496,95.4142 293.329,95.7476 294,96.5C 295.487,95.7471 295.654,94.9138 294.5,94C 295.333,93.8333 296.167,93.6667 297,93.5C 301.35,94.1719 301.517,95.3386 297.5,97C 299.473,98.973 301.473,100.973 303.5,103C 302.724,104.77 302.89,106.603 304,108.5C 308.924,116.018 314.091,123.352 319.5,130.5C 320.743,134.31 321.41,137.976 321.5,141.5 Z"/></g>
<g><path style="opacity:1" fill="#494598" d="M 394.5,107.5 C 395.5,107.5 396.5,107.5 397.5,107.5C 397.5,125.833 397.5,144.167 397.5,162.5C 396.833,162.5 396.167,162.5 395.5,162.5C 394.167,162.5 392.833,162.5 391.5,162.5C 388.96,160.334 389.627,159.334 393.5,159.5C 393.665,156.15 393.498,152.817 393,149.5C 392.29,150.973 391.124,151.64 389.5,151.5C 389.551,149.43 388.885,147.597 387.5,146C 388.536,143.554 387.702,141.72 385,140.5C 384.667,141.167 384.333,141.833 384,142.5C 383.667,141.167 383.333,139.833 383,138.5C 379.836,134.049 376.669,129.716 373.5,125.5C 374.59,123.997 375.757,123.664 377,124.5C 377.667,123.833 377.667,123.167 377,122.5C 375.644,121.62 374.144,121.286 372.5,121.5C 372.253,119.142 372.919,117.142 374.5,115.5C 375.058,114.21 376.058,113.377 377.5,113C 383.178,111.159 388.844,109.326 394.5,107.5 Z"/></g>
<g><path style="opacity:1" fill="#474da0" d="M 374.5,115.5 C 372.919,117.142 372.253,119.142 372.5,121.5C 374.144,121.286 375.644,121.62 377,122.5C 377.667,123.167 377.667,123.833 377,124.5C 375.757,123.664 374.59,123.997 373.5,125.5C 376.669,129.716 379.836,134.049 383,138.5C 383.333,139.833 383.667,141.167 384,142.5C 384.333,141.833 384.667,141.167 385,140.5C 387.702,141.72 388.536,143.554 387.5,146C 388.885,147.597 389.551,149.43 389.5,151.5C 391.124,151.64 392.29,150.973 393,149.5C 393.498,152.817 393.665,156.15 393.5,159.5C 389.627,159.334 388.96,160.334 391.5,162.5C 388.731,162.8 386.231,163.8 384,165.5C 383.228,165.355 382.561,165.022 382,164.5C 380.248,156.165 376.748,148.665 371.5,142C 369.314,136.889 366.647,132.056 363.5,127.5C 361.696,127.014 360.029,126.681 358.5,126.5C 358.414,125.504 358.748,124.671 359.5,124C 362.669,122.627 365.335,120.793 367.5,118.5C 369.426,116.707 371.759,115.707 374.5,115.5 Z"/></g>
<g><path style="opacity:1" fill="#4855a4" d="M 358.5,126.5 C 360.029,126.681 361.696,127.014 363.5,127.5C 366.647,132.056 369.314,136.889 371.5,142C 376.748,148.665 380.248,156.165 382,164.5C 382.561,165.022 383.228,165.355 384,165.5C 386.231,163.8 388.731,162.8 391.5,162.5C 392.833,162.5 394.167,162.5 395.5,162.5C 386.124,165.22 379.791,171.22 376.5,180.5C 375.681,183.305 375.181,186.305 375,189.5C 373.663,185.974 373.163,182.308 373.5,178.5C 373.939,173.599 374.939,169.099 376.5,165C 371.226,161.464 367.06,156.964 364,151.5C 361.35,146.368 358.85,141.202 356.5,136C 356.833,135.667 357.167,135.333 357.5,135C 356.331,132.993 355.665,130.827 355.5,128.5C 354.127,128.657 352.793,128.49 351.5,128C 353.866,127.56 356.199,127.06 358.5,126.5 Z"/></g>
<g><path style="opacity:1" fill="#447abf" d="M 293.5,91.5 C 293.267,93.0618 292.6,94.3951 291.5,95.5C 290.791,96.404 289.791,96.7373 288.5,96.5C 288.714,98.1439 288.38,99.6439 287.5,101C 289.954,101.59 291.621,102.424 292.5,103.5C 292.784,106.254 293.451,108.92 294.5,111.5C 297.714,115.86 300.714,120.36 303.5,125C 303.241,126.261 302.574,127.261 301.5,128C 302.715,130.096 303.549,129.929 304,127.5C 307.873,132.243 310.373,137.577 311.5,143.5C 316.754,142.769 318.921,145.102 318,150.5C 319.147,149.542 320.147,149.875 321,151.5C 321.262,147.93 321.429,144.597 321.5,141.5C 322.3,139.359 323.3,136.692 324.5,133.5C 324.666,141.84 324.5,150.173 324,158.5C 323.626,159.416 323.126,160.25 322.5,161C 318.354,161.328 314.354,162.161 310.5,163.5C 308.795,162.465 307.128,162.465 305.5,163.5C 304.036,169.037 301.536,174.037 298,178.5C 297.333,175.833 296.667,175.833 296,178.5C 296.763,175.58 296.097,173.247 294,171.5C 292.228,167.687 291.395,163.687 291.5,159.5C 289.5,159.5 287.5,159.5 285.5,159.5C 286.167,157.181 286.334,154.847 286,152.5C 284.887,153.711 283.72,153.711 282.5,152.5C 281.748,149.737 280.748,147.07 279.5,144.5C 281.619,140.107 284.952,138.44 289.5,139.5C 290.938,139.281 292.271,138.781 293.5,138C 292.364,136.47 291.364,135.137 290.5,134C 292.426,133.578 293.426,132.411 293.5,130.5C 287.629,129.313 281.629,129.48 275.5,131C 268.519,132.494 261.853,134.661 255.5,137.5C 255.343,136.127 255.51,134.793 256,133.5C 260.419,126.328 265.085,119.328 270,112.5C 276.5,106 283,99.5 289.5,93C 290.745,92.2086 292.078,91.7086 293.5,91.5 Z"/></g>
<g><path style="opacity:1" fill="#4287c7" d="M 293.5,130.5 C 293.426,132.411 292.426,133.578 290.5,134C 291.364,135.137 292.364,136.47 293.5,138C 292.271,138.781 290.938,139.281 289.5,139.5C 284.952,138.44 281.619,140.107 279.5,144.5C 280.748,147.07 281.748,149.737 282.5,152.5C 283.72,153.711 284.887,153.711 286,152.5C 286.334,154.847 286.167,157.181 285.5,159.5C 287.5,159.5 289.5,159.5 291.5,159.5C 291.395,163.687 292.228,167.687 294,171.5C 296.097,173.247 296.763,175.58 296,178.5C 296.667,175.833 297.333,175.833 298,178.5C 301.536,174.037 304.036,169.037 305.5,163.5C 307.128,162.465 308.795,162.465 310.5,163.5C 303.933,169.828 301.767,177.494 304,186.5C 307.574,194.81 313.908,199.81 323,201.5C 329.901,200.467 335.734,197.467 340.5,192.5C 339.962,194.117 339.629,195.784 339.5,197.5C 337.973,197.427 336.973,198.094 336.5,199.5C 332.619,201.463 328.619,202.797 324.5,203.5C 320.815,203.105 317.148,202.938 313.5,203C 316.474,204.506 316.807,206.172 314.5,208C 315.966,208.635 317.3,209.469 318.5,210.5C 320.994,214.644 322.994,218.977 324.5,223.5C 325.833,223.5 327.167,223.5 328.5,223.5C 327.772,227.219 328.772,230.219 331.5,232.5C 329.076,234.714 329.743,235.714 333.5,235.5C 334.258,238.487 335.091,241.487 336,244.5C 337.205,245.071 338.372,245.738 339.5,246.5C 338.953,248.712 339.953,250.379 342.5,251.5C 343.466,253.396 343.799,255.396 343.5,257.5C 353.758,256.962 354.091,258.128 344.5,261C 348.572,261.425 352.405,262.592 356,264.5C 358.225,263.904 360.392,263.237 362.5,262.5C 364.167,262.5 365.833,262.5 367.5,262.5C 371.957,261.817 375.957,260.15 379.5,257.5C 382.698,256.213 386.031,255.547 389.5,255.5C 383.645,259.183 377.311,262.017 370.5,264C 363.731,264.82 357.065,266.154 350.5,268C 337.081,270.478 323.748,270.978 310.5,269.5C 316.346,268.833 322.346,268.167 328.5,267.5C 324.639,266.402 324.639,265.569 328.5,265C 325.518,264.502 322.518,264.335 319.5,264.5C 319.5,263.5 319.5,262.5 319.5,261.5C 321.199,261.66 322.866,261.494 324.5,261C 322.646,258.457 321.479,255.624 321,252.5C 320.586,252.043 320.086,251.709 319.5,251.5C 317.486,252.936 315.486,254.27 313.5,255.5C 312.09,255.132 311.09,254.299 310.5,253C 311.451,252.282 311.617,251.449 311,250.5C 306.02,248.664 305.686,246.664 310,244.5C 310.12,239.545 312.62,237.212 317.5,237.5C 318.167,234.5 318.833,231.5 319.5,228.5C 318.209,228.263 317.209,228.596 316.5,229.5C 314.5,229.5 312.5,229.5 310.5,229.5C 311.568,228.566 312.901,228.232 314.5,228.5C 314.286,226.856 314.62,225.356 315.5,224C 312.717,222.273 311.05,219.773 310.5,216.5C 309.675,215.614 308.675,215.281 307.5,215.5C 306.006,211.723 305.339,207.723 305.5,203.5C 304.167,203.5 302.833,203.5 301.5,203.5C 301.762,202.022 301.429,200.689 300.5,199.5C 297.653,196.7 294.987,193.867 292.5,191C 292.957,190.586 293.291,190.086 293.5,189.5C 292.208,187.333 291.375,185 291,182.5C 287.956,181.197 286.789,178.864 287.5,175.5C 286.5,175.5 285.5,175.5 284.5,175.5C 284.459,170.654 282.626,166.654 279,163.5C 278.51,162.207 278.343,160.873 278.5,159.5C 277.448,159.649 276.448,159.483 275.5,159C 273.497,157.666 271.997,156.166 271,154.5C 267.926,156.071 265.76,158.404 264.5,161.5C 261.694,164.728 258.694,167.728 255.5,170.5C 256.128,167.91 257.295,165.577 259,163.5C 263.333,157.833 267.667,152.167 272,146.5C 277.26,142.118 282.427,137.618 287.5,133C 289.407,131.878 291.407,131.045 293.5,130.5 Z"/></g>
<g><path style="opacity:1" fill="#445caa" d="M 367.5,118.5 C 365.335,120.793 362.669,122.627 359.5,124C 358.748,124.671 358.414,125.504 358.5,126.5C 356.199,127.06 353.866,127.56 351.5,128C 352.793,128.49 354.127,128.657 355.5,128.5C 355.665,130.827 356.331,132.993 357.5,135C 357.167,135.333 356.833,135.667 356.5,136C 358.85,141.202 361.35,146.368 364,151.5C 367.06,156.964 371.226,161.464 376.5,165C 374.939,169.099 373.939,173.599 373.5,178.5C 372.055,182.921 371.222,187.588 371,192.5C 369.957,190.299 369.123,187.966 368.5,185.5C 367.914,185.709 367.414,186.043 367,186.5C 366.405,185.101 366.572,183.768 367.5,182.5C 366.975,181.808 366.308,181.308 365.5,181C 366.28,179.927 366.113,178.76 365,177.5C 364.29,178.973 363.124,179.64 361.5,179.5C 361.631,178.624 361.298,177.957 360.5,177.5C 359.575,178.641 358.741,178.641 358,177.5C 354.813,172.134 352.48,166.468 351,160.5C 348.316,166.141 346.983,165.808 347,159.5C 345.698,167.335 345.032,175.335 345,183.5C 344.722,184.416 344.222,185.082 343.5,185.5C 343.333,166.164 343.5,146.83 344,127.5C 351.784,124.357 359.618,121.357 367.5,118.5 Z"/></g>
<g><path style="opacity:1" fill="#4c3a8d" d="M 431.5,127.5 C 441.945,140.755 446.612,155.921 445.5,173C 445.694,179.977 445.027,186.81 443.5,193.5C 442.624,193.369 441.957,193.702 441.5,194.5C 441.088,196.887 440.088,198.887 438.5,200.5C 438.167,199.5 437.833,198.5 437.5,197.5C 438.685,194.423 439.685,191.256 440.5,188C 440.167,187.833 439.833,187.667 439.5,187.5C 438.5,188.833 437.5,190.167 436.5,191.5C 435.833,188.833 435.167,186.167 434.5,183.5C 433.808,184.025 433.308,184.692 433,185.5C 431.667,182.167 430.333,178.833 429,175.5C 428.667,176.5 428.333,177.5 428,178.5C 426.579,172.952 424.746,168.285 422.5,164.5C 421.749,165.376 421.249,166.376 421,167.5C 420.501,172.823 420.334,178.156 420.5,183.5C 419.172,162.33 419.172,140.996 420.5,119.5C 424.203,122.216 427.87,124.883 431.5,127.5 Z"/></g>
<g><path style="opacity:1" fill="#4d348d" d="M 425.5,125.5 C 427.743,126.505 428.076,128.005 426.5,130C 427.287,139.721 428.453,139.888 430,130.5C 431.117,133.415 433.117,135.415 436,136.5C 435.94,142.861 434.606,142.861 432,136.5C 431.863,140.607 432.529,144.94 434,149.5C 434.333,147.167 434.667,144.833 435,142.5C 436.356,143.38 437.856,143.714 439.5,143.5C 439.079,148.633 440.079,153.466 442.5,158C 441.985,161.397 441.985,164.897 442.5,168.5C 441.742,173.744 440.242,178.744 438,183.5C 438.779,176.185 436.779,169.852 432,164.5C 431.581,160.148 430.914,159.815 430,163.5C 426.889,162.784 426.722,160.951 429.5,158C 427.954,156.56 427.121,154.727 427,152.5C 426.667,154.167 426.333,155.833 426,157.5C 425.08,154.899 424.413,152.232 424,149.5C 423.667,149.833 423.333,150.167 423,150.5C 421.604,142.92 421.104,135.253 421.5,127.5C 423.38,127.771 424.713,127.104 425.5,125.5 Z"/></g>
<g><path style="opacity:0.183" fill="#6a5e99" d="M 431.5,127.5 C 427.87,124.883 424.203,122.216 420.5,119.5C 419.172,140.996 419.172,162.33 420.5,183.5C 419.82,187.119 419.32,190.786 419,194.5C 417.644,195.38 416.144,195.714 414.5,195.5C 417.225,189.885 418.558,183.885 418.5,177.5C 418.663,157.846 418.496,138.179 418,118.5C 419.388,117.446 420.888,117.28 422.5,118C 425.704,121.036 428.704,124.203 431.5,127.5 Z"/></g>
<g><path style="opacity:0.127" fill="#8583b0" d="M 394.5,107.5 C 395.568,106.566 396.901,106.232 398.5,106.5C 398.83,125.341 398.497,144.007 397.5,162.5C 397.5,144.167 397.5,125.833 397.5,107.5C 396.5,107.5 395.5,107.5 394.5,107.5 Z"/></g>
<g><path style="opacity:1" fill="#4366b2" d="M 361.5,179.5 C 360.624,179.369 359.957,179.702 359.5,180.5C 360.914,181.624 362.414,182.624 364,183.5C 364.36,185.608 365.027,187.608 366,189.5C 367.156,188.007 367.99,188.174 368.5,190C 367.939,192.071 367.606,194.071 367.5,196C 368.424,197.811 369.257,197.645 370,195.5C 371.188,196.563 371.688,197.897 371.5,199.5C 373.912,199.244 375.579,200.244 376.5,202.5C 375.726,203.711 374.893,203.711 374,202.5C 373.517,203.448 373.351,204.448 373.5,205.5C 372.325,205.281 371.325,205.614 370.5,206.5C 375.984,208.482 380.484,211.815 384,216.5C 386.522,223.33 389.022,229.996 391.5,236.5C 392.833,236.5 394.167,236.5 395.5,236.5C 395.5,237.833 395.5,239.167 395.5,240.5C 397.308,240.491 398.975,240.991 400.5,242C 399.594,243.699 399.261,245.533 399.5,247.5C 401.565,247.483 403.565,247.15 405.5,246.5C 403.371,248.95 400.704,250.617 397.5,251.5C 394.813,251.664 392.146,251.497 389.5,251C 387.548,248.926 385.715,246.759 384,244.5C 384.594,242.491 384.427,240.491 383.5,238.5C 379.127,234.338 375.46,229.672 372.5,224.5C 373.309,222.929 373.643,221.262 373.5,219.5C 372.022,219.762 370.689,219.429 369.5,218.5C 368.57,215.638 366.903,213.305 364.5,211.5C 362.775,208.326 361.442,204.993 360.5,201.5C 356.655,198.161 354.821,194.161 355,189.5C 354.311,188.643 353.478,187.977 352.5,187.5C 351.851,189.624 351.017,191.624 350,193.5C 349.779,190.096 350.279,186.762 351.5,183.5C 350.265,180.956 349.099,180.956 348,183.5C 347.223,180.571 347.39,177.737 348.5,175C 347.773,173.601 347.273,172.101 347,170.5C 347.084,177.048 346.084,183.381 344,189.5C 343.768,188.263 343.268,187.263 342.5,186.5C 342.5,185.833 342.833,185.5 343.5,185.5C 344.222,185.082 344.722,184.416 345,183.5C 345.032,175.335 345.698,167.335 347,159.5C 346.983,165.808 348.316,166.141 351,160.5C 352.48,166.468 354.813,172.134 358,177.5C 358.741,178.641 359.575,178.641 360.5,177.5C 361.298,177.957 361.631,178.624 361.5,179.5 Z"/></g>
<g><path style="opacity:1" fill="#398dcf" d="M 310.5,229.5 C 307.287,229.81 304.287,229.477 301.5,228.5C 302.404,227.791 302.737,226.791 302.5,225.5C 300.801,225.66 299.134,225.494 297.5,225C 298.572,223.716 299.905,223.383 301.5,224C 300.448,220.777 298.448,218.277 295.5,216.5C 295.833,215.833 296.167,215.167 296.5,214.5C 294.774,212.772 293.441,210.772 292.5,208.5C 292.833,207.833 293.167,207.167 293.5,206.5C 291.995,205.158 291.328,203.492 291.5,201.5C 287.847,201.77 286.514,200.437 287.5,197.5C 284.935,193.703 282.935,189.703 281.5,185.5C 280.167,185.5 278.833,185.5 277.5,185.5C 277.029,180.864 275.029,177.031 271.5,174C 271.833,173.667 272.167,173.333 272.5,173C 268.704,172.771 266.371,170.771 265.5,167C 264.167,167 262.833,167 261.5,167C 263.249,163.475 265.416,162.975 268,165.5C 268.456,164.256 267.956,163.423 266.5,163C 266.833,162.667 267.167,162.333 267.5,162C 266.552,161.517 265.552,161.351 264.5,161.5C 265.76,158.404 267.926,156.071 271,154.5C 271.997,156.166 273.497,157.666 275.5,159C 276.448,159.483 277.448,159.649 278.5,159.5C 278.343,160.873 278.51,162.207 279,163.5C 282.626,166.654 284.459,170.654 284.5,175.5C 285.5,175.5 286.5,175.5 287.5,175.5C 286.789,178.864 287.956,181.197 291,182.5C 291.375,185 292.208,187.333 293.5,189.5C 293.291,190.086 292.957,190.586 292.5,191C 294.987,193.867 297.653,196.7 300.5,199.5C 301.429,200.689 301.762,202.022 301.5,203.5C 302.833,203.5 304.167,203.5 305.5,203.5C 305.339,207.723 306.006,211.723 307.5,215.5C 308.675,215.281 309.675,215.614 310.5,216.5C 311.05,219.773 312.717,222.273 315.5,224C 314.62,225.356 314.286,226.856 314.5,228.5C 312.901,228.232 311.568,228.566 310.5,229.5 Z"/></g>
<g><path style="opacity:1" fill="#3a9bd9" d="M 301.5,228.5 C 304.287,229.477 307.287,229.81 310.5,229.5C 312.5,229.5 314.5,229.5 316.5,229.5C 306.288,232.406 295.955,233.072 285.5,231.5C 285.082,230.778 284.416,230.278 283.5,230C 278.547,229.005 273.547,228.338 268.5,228C 266.974,226.113 264.974,225.113 262.5,225C 261.313,223.981 260.313,222.814 259.5,221.5C 260.025,220.808 260.692,220.308 261.5,220C 260.692,219.692 260.025,219.192 259.5,218.5C 260.933,216.878 262.599,215.545 264.5,214.5C 262.306,214.642 259.973,214.309 257.5,213.5C 257.723,210.886 256.556,209.219 254,208.5C 253.324,204.798 252.491,201.131 251.5,197.5C 251.76,195.813 252.427,194.313 253.5,193C 253,192.5 252.5,192 252,191.5C 251.333,188.167 251.333,184.833 252,181.5C 253.322,178.532 254.489,175.532 255.5,172.5C 257.071,171.803 258.571,171.47 260,171.5C 261.32,173.654 263.153,175.154 265.5,176C 264.833,176.333 264.167,176.667 263.5,177C 264.428,177.388 265.095,178.055 265.5,179C 265.108,180.011 264.441,180.511 263.5,180.5C 264.863,181.893 265.696,183.559 266,185.5C 266.333,184.167 266.667,182.833 267,181.5C 268.977,184.312 271.144,186.978 273.5,189.5C 273.047,193.227 274.714,195.894 278.5,197.5C 278.887,201.218 280.553,204.218 283.5,206.5C 282.948,208.003 282.948,209.669 283.5,211.5C 284.822,211.33 285.989,211.663 287,212.5C 287.495,214.473 287.662,216.473 287.5,218.5C 290.321,218.316 291.988,219.649 292.5,222.5C 290.539,223.848 290.372,225.181 292,226.5C 293.749,225.701 295.082,226.368 296,228.5C 297.626,228.146 299.459,228.146 301.5,228.5 Z"/></g>
<g><path style="opacity:1" fill="#416db7" d="M 397.5,251.5 C 395.421,253.873 392.754,255.206 389.5,255.5C 386.031,255.547 382.698,256.213 379.5,257.5C 379.611,256.883 379.944,256.383 380.5,256C 378.824,254.823 377.491,253.323 376.5,251.5C 375.883,243.594 372.217,237.594 365.5,233.5C 362.211,227.07 359.211,220.737 356.5,214.5C 355.675,213.614 354.675,213.281 353.5,213.5C 353.481,211.94 353.148,210.44 352.5,209C 350.298,206.794 348.464,204.294 347,201.5C 346.259,200.359 345.425,200.359 344.5,201.5C 342.511,200.368 340.844,199.035 339.5,197.5C 339.629,195.784 339.962,194.117 340.5,192.5C 341.167,190.5 341.833,188.5 342.5,186.5C 343.268,187.263 343.768,188.263 344,189.5C 346.084,183.381 347.084,177.048 347,170.5C 347.273,172.101 347.773,173.601 348.5,175C 347.39,177.737 347.223,180.571 348,183.5C 349.099,180.956 350.265,180.956 351.5,183.5C 350.279,186.762 349.779,190.096 350,193.5C 351.017,191.624 351.851,189.624 352.5,187.5C 353.478,187.977 354.311,188.643 355,189.5C 354.821,194.161 356.655,198.161 360.5,201.5C 361.442,204.993 362.775,208.326 364.5,211.5C 366.903,213.305 368.57,215.638 369.5,218.5C 370.689,219.429 372.022,219.762 373.5,219.5C 373.643,221.262 373.309,222.929 372.5,224.5C 375.46,229.672 379.127,234.338 383.5,238.5C 384.427,240.491 384.594,242.491 384,244.5C 385.715,246.759 387.548,248.926 389.5,251C 392.146,251.497 394.813,251.664 397.5,251.5 Z"/></g>
<g><path style="opacity:1" fill="#3f73bc" d="M 339.5,197.5 C 340.844,199.035 342.511,200.368 344.5,201.5C 345.425,200.359 346.259,200.359 347,201.5C 348.464,204.294 350.298,206.794 352.5,209C 353.148,210.44 353.481,211.94 353.5,213.5C 354.675,213.281 355.675,213.614 356.5,214.5C 359.211,220.737 362.211,227.07 365.5,233.5C 372.217,237.594 375.883,243.594 376.5,251.5C 377.491,253.323 378.824,254.823 380.5,256C 379.944,256.383 379.611,256.883 379.5,257.5C 375.957,260.15 371.957,261.817 367.5,262.5C 368.447,260.242 367.447,259.075 364.5,259C 367.186,256.454 368.186,253.287 367.5,249.5C 365.508,249.672 363.842,249.005 362.5,247.5C 358.631,237.67 353.964,228.336 348.5,219.5C 347.167,216.833 345.833,216.833 344.5,219.5C 343.696,213.814 341.696,208.647 338.5,204C 339.641,201.776 338.974,200.276 336.5,199.5C 336.973,198.094 337.973,197.427 339.5,197.5 Z"/></g>
<g><path style="opacity:1" fill="#43a5db" d="M 255.5,170.5 C 255.5,171.167 255.5,171.833 255.5,172.5C 254.489,175.532 253.322,178.532 252,181.5C 251.333,184.833 251.333,188.167 252,191.5C 252.5,192 253,192.5 253.5,193C 252.427,194.313 251.76,195.813 251.5,197.5C 252.491,201.131 253.324,204.798 254,208.5C 256.556,209.219 257.723,210.886 257.5,213.5C 259.973,214.309 262.306,214.642 264.5,214.5C 262.599,215.545 260.933,216.878 259.5,218.5C 260.025,219.192 260.692,219.692 261.5,220C 260.692,220.308 260.025,220.808 259.5,221.5C 260.313,222.814 261.313,223.981 262.5,225C 264.974,225.113 266.974,226.113 268.5,228C 273.547,228.338 278.547,229.005 283.5,230C 284.416,230.278 285.082,230.778 285.5,231.5C 266.479,230.981 250.479,223.981 237.5,210.5C 242.184,196.398 248.184,183.064 255.5,170.5 Z"/></g>
<g><path style="opacity:1" fill="#3892d3" d="M 264.5,161.5 C 265.552,161.351 266.552,161.517 267.5,162C 267.167,162.333 266.833,162.667 266.5,163C 267.956,163.423 268.456,164.256 268,165.5C 265.416,162.975 263.249,163.475 261.5,167C 262.833,167 264.167,167 265.5,167C 266.371,170.771 268.704,172.771 272.5,173C 272.167,173.333 271.833,173.667 271.5,174C 275.029,177.031 277.029,180.864 277.5,185.5C 278.833,185.5 280.167,185.5 281.5,185.5C 282.935,189.703 284.935,193.703 287.5,197.5C 286.514,200.437 287.847,201.77 291.5,201.5C 291.328,203.492 291.995,205.158 293.5,206.5C 293.167,207.167 292.833,207.833 292.5,208.5C 293.441,210.772 294.774,212.772 296.5,214.5C 296.167,215.167 295.833,215.833 295.5,216.5C 298.448,218.277 300.448,220.777 301.5,224C 299.905,223.383 298.572,223.716 297.5,225C 299.134,225.494 300.801,225.66 302.5,225.5C 302.737,226.791 302.404,227.791 301.5,228.5C 299.459,228.146 297.626,228.146 296,228.5C 295.082,226.368 293.749,225.701 292,226.5C 290.372,225.181 290.539,223.848 292.5,222.5C 291.988,219.649 290.321,218.316 287.5,218.5C 287.662,216.473 287.495,214.473 287,212.5C 285.989,211.663 284.822,211.33 283.5,211.5C 282.948,209.669 282.948,208.003 283.5,206.5C 280.553,204.218 278.887,201.218 278.5,197.5C 274.714,195.894 273.047,193.227 273.5,189.5C 271.144,186.978 268.977,184.312 267,181.5C 266.667,182.833 266.333,184.167 266,185.5C 265.696,183.559 264.863,181.893 263.5,180.5C 264.441,180.511 265.108,180.011 265.5,179C 265.095,178.055 264.428,177.388 263.5,177C 264.167,176.667 264.833,176.333 265.5,176C 263.153,175.154 261.32,173.654 260,171.5C 258.571,171.47 257.071,171.803 255.5,172.5C 255.5,171.833 255.5,171.167 255.5,170.5C 258.694,167.728 261.694,164.728 264.5,161.5 Z"/></g>
<g><path style="opacity:1" fill="#3c7fc5" d="M 324.5,203.5 C 324.082,204.222 323.416,204.722 322.5,205C 325.833,205.333 329.167,205.667 332.5,206C 331.594,207.699 331.261,209.533 331.5,211.5C 332.822,211.33 333.989,211.663 335,212.5C 336.787,220.975 340.787,228.309 347,234.5C 347.532,237.264 348.366,239.93 349.5,242.5C 353.541,245.395 356.207,249.228 357.5,254C 357.355,254.772 357.022,255.439 356.5,256C 357.905,257.269 359.571,257.769 361.5,257.5C 361.67,258.822 361.337,259.989 360.5,261C 361.416,261.278 362.082,261.778 362.5,262.5C 360.392,263.237 358.225,263.904 356,264.5C 352.405,262.592 348.572,261.425 344.5,261C 354.091,258.128 353.758,256.962 343.5,257.5C 343.799,255.396 343.466,253.396 342.5,251.5C 339.953,250.379 338.953,248.712 339.5,246.5C 338.372,245.738 337.205,245.071 336,244.5C 335.091,241.487 334.258,238.487 333.5,235.5C 329.743,235.714 329.076,234.714 331.5,232.5C 328.772,230.219 327.772,227.219 328.5,223.5C 327.167,223.5 325.833,223.5 324.5,223.5C 322.994,218.977 320.994,214.644 318.5,210.5C 317.3,209.469 315.966,208.635 314.5,208C 316.807,206.172 316.474,204.506 313.5,203C 317.148,202.938 320.815,203.105 324.5,203.5 Z"/></g>
<g><path style="opacity:1" fill="#485aa7" d="M 439.5,203.5 C 433.774,219.591 424.107,232.924 410.5,243.5C 407.859,244.263 405.192,244.43 402.5,244C 403.878,242.287 405.545,240.953 407.5,240C 405.484,239.101 403.817,237.767 402.5,236C 403.167,235.667 403.833,235.333 404.5,235C 403.594,233.301 403.261,231.467 403.5,229.5C 401.396,229.799 399.396,229.466 397.5,228.5C 393.477,222.746 390.81,216.413 389.5,209.5C 389.818,208.353 390.484,207.519 391.5,207C 390.833,206.667 390.167,206.333 389.5,206C 390.793,205.51 392.127,205.343 393.5,205.5C 399.518,209.526 404.184,214.86 407.5,221.5C 407.392,222.442 407.059,223.275 406.5,224C 409.341,225.582 410.341,227.749 409.5,230.5C 412.592,231.541 415.592,232.374 418.5,233C 421.047,231.684 421.713,229.851 420.5,227.5C 421.993,226.859 422.993,225.859 423.5,224.5C 424.496,224.586 425.329,224.252 426,223.5C 426.333,221.167 426.667,218.833 427,216.5C 433.368,214.625 436.701,210.292 437,203.5C 437.333,204.167 437.667,204.833 438,205.5C 438.278,204.584 438.778,203.918 439.5,203.5 Z"/></g>
<g><path style="opacity:1" fill="#4652a3" d="M 413.5,198.5 C 413.351,199.552 413.517,200.552 414,201.5C 418.53,198.62 421.03,199.954 421.5,205.5C 420.022,205.238 418.689,205.571 417.5,206.5C 417.833,206.833 418.167,207.167 418.5,207.5C 421.067,207.778 423.733,207.944 426.5,208C 426.957,208.414 427.291,208.914 427.5,209.5C 425.84,213.815 423.84,217.982 421.5,222C 422.056,223.011 422.722,223.844 423.5,224.5C 422.993,225.859 421.993,226.859 420.5,227.5C 421.713,229.851 421.047,231.684 418.5,233C 415.592,232.374 412.592,231.541 409.5,230.5C 410.341,227.749 409.341,225.582 406.5,224C 407.059,223.275 407.392,222.442 407.5,221.5C 404.184,214.86 399.518,209.526 393.5,205.5C 398.214,205.827 402.88,205.493 407.5,204.5C 409.507,202.467 411.507,200.467 413.5,198.5 Z"/></g>
<g><path style="opacity:1" fill="#4a459a" d="M 443.5,193.5 C 442.737,197.137 441.403,200.47 439.5,203.5C 438.778,203.918 438.278,204.584 438,205.5C 437.667,204.833 437.333,204.167 437,203.5C 436.701,210.292 433.368,214.625 427,216.5C 426.667,218.833 426.333,221.167 426,223.5C 425.329,224.252 424.496,224.586 423.5,224.5C 422.722,223.844 422.056,223.011 421.5,222C 423.84,217.982 425.84,213.815 427.5,209.5C 427.291,208.914 426.957,208.414 426.5,208C 423.733,207.944 421.067,207.778 418.5,207.5C 418.167,207.167 417.833,206.833 417.5,206.5C 418.689,205.571 420.022,205.238 421.5,205.5C 421.03,199.954 418.53,198.62 414,201.5C 413.517,200.552 413.351,199.552 413.5,198.5C 414.11,197.609 414.443,196.609 414.5,195.5C 416.144,195.714 417.644,195.38 419,194.5C 419.32,190.786 419.82,187.119 420.5,183.5C 420.334,178.156 420.501,172.823 421,167.5C 421.249,166.376 421.749,165.376 422.5,164.5C 424.746,168.285 426.579,172.952 428,178.5C 428.333,177.5 428.667,176.5 429,175.5C 430.333,178.833 431.667,182.167 433,185.5C 433.308,184.692 433.808,184.025 434.5,183.5C 435.167,186.167 435.833,188.833 436.5,191.5C 437.5,190.167 438.5,188.833 439.5,187.5C 439.833,187.667 440.167,187.833 440.5,188C 439.685,191.256 438.685,194.423 437.5,197.5C 437.833,198.5 438.167,199.5 438.5,200.5C 440.088,198.887 441.088,196.887 441.5,194.5C 441.957,193.702 442.624,193.369 443.5,193.5 Z"/></g>
<g><path style="opacity:1" fill="#4861ad" d="M 373.5,178.5 C 373.163,182.308 373.663,185.974 375,189.5C 375.181,186.305 375.681,183.305 376.5,180.5C 377.983,197.82 387.317,205.32 404.5,203C 408.276,201.053 411.61,198.553 414.5,195.5C 414.443,196.609 414.11,197.609 413.5,198.5C 411.507,200.467 409.507,202.467 407.5,204.5C 402.88,205.493 398.214,205.827 393.5,205.5C 392.127,205.343 390.793,205.51 389.5,206C 390.167,206.333 390.833,206.667 391.5,207C 390.484,207.519 389.818,208.353 389.5,209.5C 390.81,216.413 393.477,222.746 397.5,228.5C 399.396,229.466 401.396,229.799 403.5,229.5C 403.261,231.467 403.594,233.301 404.5,235C 403.833,235.333 403.167,235.667 402.5,236C 403.817,237.767 405.484,239.101 407.5,240C 405.545,240.953 403.878,242.287 402.5,244C 405.192,244.43 407.859,244.263 410.5,243.5C 409.101,244.89 407.434,245.89 405.5,246.5C 403.565,247.15 401.565,247.483 399.5,247.5C 399.261,245.533 399.594,243.699 400.5,242C 398.975,240.991 397.308,240.491 395.5,240.5C 395.5,239.167 395.5,237.833 395.5,236.5C 394.167,236.5 392.833,236.5 391.5,236.5C 389.022,229.996 386.522,223.33 384,216.5C 380.484,211.815 375.984,208.482 370.5,206.5C 371.325,205.614 372.325,205.281 373.5,205.5C 373.351,204.448 373.517,203.448 374,202.5C 374.893,203.711 375.726,203.711 376.5,202.5C 375.579,200.244 373.912,199.244 371.5,199.5C 371.688,197.897 371.188,196.563 370,195.5C 369.257,197.645 368.424,197.811 367.5,196C 367.606,194.071 367.939,192.071 368.5,190C 367.99,188.174 367.156,188.007 366,189.5C 365.027,187.608 364.36,185.608 364,183.5C 362.414,182.624 360.914,181.624 359.5,180.5C 359.957,179.702 360.624,179.369 361.5,179.5C 363.124,179.64 364.29,178.973 365,177.5C 366.113,178.76 366.28,179.927 365.5,181C 366.308,181.308 366.975,181.808 367.5,182.5C 366.572,183.768 366.405,185.101 367,186.5C 367.414,186.043 367.914,185.709 368.5,185.5C 369.123,187.966 369.957,190.299 371,192.5C 371.222,187.588 372.055,182.921 373.5,178.5 Z"/></g>
<g><path style="opacity:1" fill="#3e79c1" d="M 336.5,199.5 C 338.974,200.276 339.641,201.776 338.5,204C 341.696,208.647 343.696,213.814 344.5,219.5C 345.833,216.833 347.167,216.833 348.5,219.5C 353.964,228.336 358.631,237.67 362.5,247.5C 363.842,249.005 365.508,249.672 367.5,249.5C 368.186,253.287 367.186,256.454 364.5,259C 367.447,259.075 368.447,260.242 367.5,262.5C 365.833,262.5 364.167,262.5 362.5,262.5C 362.082,261.778 361.416,261.278 360.5,261C 361.337,259.989 361.67,258.822 361.5,257.5C 359.571,257.769 357.905,257.269 356.5,256C 357.022,255.439 357.355,254.772 357.5,254C 356.207,249.228 353.541,245.395 349.5,242.5C 348.366,239.93 347.532,237.264 347,234.5C 340.787,228.309 336.787,220.975 335,212.5C 333.989,211.663 332.822,211.33 331.5,211.5C 331.261,209.533 331.594,207.699 332.5,206C 329.167,205.667 325.833,205.333 322.5,205C 323.416,204.722 324.082,204.222 324.5,203.5C 328.619,202.797 332.619,201.463 336.5,199.5 Z"/></g>
<g><path style="opacity:0.999" fill="#3e9bd7" d="M 316.5,229.5 C 317.209,228.596 318.209,228.263 319.5,228.5C 318.833,231.5 318.167,234.5 317.5,237.5C 312.62,237.212 310.12,239.545 310,244.5C 305.686,246.664 306.02,248.664 311,250.5C 311.617,251.449 311.451,252.282 310.5,253C 311.09,254.299 312.09,255.132 313.5,255.5C 315.486,254.27 317.486,252.936 319.5,251.5C 320.086,251.709 320.586,252.043 321,252.5C 321.479,255.624 322.646,258.457 324.5,261C 322.866,261.494 321.199,261.66 319.5,261.5C 319.5,262.5 319.5,263.5 319.5,264.5C 322.518,264.335 325.518,264.502 328.5,265C 324.639,265.569 324.639,266.402 328.5,267.5C 322.346,268.167 316.346,268.833 310.5,269.5C 298.638,268.452 286.971,266.285 275.5,263C 273.697,262.363 272.364,261.197 271.5,259.5C 282.214,254.644 292.88,249.478 303.5,244C 308.827,239.672 313.827,235.006 318.5,230C 317.906,229.536 317.239,229.369 316.5,229.5 Z"/></g>
<g><path style="opacity:0.137" fill="#9285b3" d="M 445.5,301.5 C 455.008,300.177 464.675,300.177 474.5,301.5C 475.999,304.809 475.666,307.809 473.5,310.5C 473.5,307.5 473.5,304.5 473.5,301.5C 464.167,301.5 454.833,301.5 445.5,301.5 Z"/></g>
<g><path style="opacity:0.667" fill="#67538f" d="M 445.5,301.5 C 454.833,301.5 464.167,301.5 473.5,301.5C 473.5,304.5 473.5,307.5 473.5,310.5C 471.052,311.473 468.385,311.806 465.5,311.5C 465.666,320.173 465.5,328.84 465,337.5C 463.527,339.007 461.693,339.674 459.5,339.5C 457.667,339.415 456.334,338.748 455.5,337.5C 454.507,329.016 454.174,320.349 454.5,311.5C 445.458,313.378 442.458,310.045 445.5,301.5 Z"/></g>
<g><path style="opacity:0.97" fill="#513a8a" d="M 178.5,310.5 C 175.5,310.5 172.5,310.5 169.5,310.5C 169.5,319.5 169.5,328.5 169.5,337.5C 168.666,338.748 167.333,339.415 165.5,339.5C 163.307,339.674 161.473,339.007 160,337.5C 159.5,328.84 159.334,320.173 159.5,311.5C 150.51,313.014 147.51,309.514 150.5,301C 160.161,300.5 169.828,300.334 179.5,300.5C 179.813,304.042 179.479,307.375 178.5,310.5 Z"/></g>
<g><path style="opacity:1" fill="#4b3387" d="M 287.5,302.5 C 288.483,306.298 288.817,310.298 288.5,314.5C 292.5,314.5 296.5,314.5 300.5,314.5C 300.231,310.069 300.564,305.735 301.5,301.5C 304.167,301.5 306.833,301.5 309.5,301.5C 309.5,313.5 309.5,325.5 309.5,337.5C 303.249,337.817 300.916,334.984 302.5,329C 301.934,328.005 301.267,327.172 300.5,326.5C 300.5,326.167 300.5,325.833 300.5,325.5C 296.366,324.515 292.032,324.182 287.5,324.5C 287.183,328.702 287.517,332.702 288.5,336.5C 288.196,337.15 287.863,337.817 287.5,338.5C 284.02,339.806 280.687,339.806 277.5,338.5C 277.5,326.167 277.5,313.833 277.5,301.5C 280.939,301.253 284.272,301.586 287.5,302.5 Z"/></g>
<g><path style="opacity:1" fill="#4b3389" d="M 455.5,337.5 C 455.832,328.475 455.498,319.475 454.5,310.5C 451.916,309.607 449.249,309.274 446.5,309.5C 446.244,307.208 446.577,305.041 447.5,303C 454.833,302.333 462.167,302.333 469.5,303C 471.677,304.186 472.677,306.019 472.5,308.5C 469.223,308.216 466.057,308.549 463,309.5C 462.5,318.827 462.334,328.161 462.5,337.5C 460.167,337.5 457.833,337.5 455.5,337.5 Z"/></g>
<g><path style="opacity:1" fill="#4d3689" d="M 486.5,301.5 C 493.891,301.201 501.224,301.535 508.5,302.5C 509.747,304.006 509.747,305.506 508.5,307C 505.211,307.882 501.877,308.548 498.5,309C 497.748,309.671 497.414,310.504 497.5,311.5C 497.5,312.5 497.5,313.5 497.5,314.5C 501.182,314.335 504.848,314.501 508.5,315C 509.833,318.333 509.833,321.667 508.5,325C 504.789,325.175 501.122,325.675 497.5,326.5C 496.209,327.527 496.209,328.527 497.5,329.5C 501.634,330.485 505.968,330.818 510.5,330.5C 510.5,333.167 510.5,335.833 510.5,338.5C 502.826,338.666 495.159,338.5 487.5,338C 486.862,334.065 486.196,330.231 485.5,326.5C 485.174,317.983 485.507,309.65 486.5,301.5 Z"/></g>
<g><path style="opacity:1" fill="#543f8b" d="M 241.5,300.5 C 250.239,299.126 257.405,301.793 263,308.5C 264.14,311.528 263.306,313.695 260.5,315C 258.167,315.667 255.833,315.667 253.5,315C 248.115,310.645 243.115,311.311 238.5,317C 237.117,326.283 241.117,330.283 250.5,329C 254.23,323.597 258.396,323.43 263,328.5C 263.746,331.789 262.58,334.289 259.5,336C 242.238,344.371 231.238,339.204 226.5,320.5C 227.833,310.864 232.833,304.197 241.5,300.5 Z"/></g>
<g><path style="opacity:0.999" fill="#4a3388" d="M 191.5,301.5 C 199.167,301.5 206.833,301.5 214.5,301.5C 214.5,304.5 214.5,307.5 214.5,310.5C 206.812,310.349 201.812,309.849 199.5,309C 198.577,311.041 198.244,313.208 198.5,315.5C 202.846,315.334 207.179,315.501 211.5,316C 212.435,318.381 212.768,320.881 212.5,323.5C 208.818,323.335 205.152,323.501 201.5,324C 198.983,326.09 198.983,327.923 201.5,329.5C 201.918,330.222 202.584,330.722 203.5,331C 207.152,331.499 210.818,331.665 214.5,331.5C 214.896,334.044 214.229,336.211 212.5,338C 205.508,338.5 198.508,338.666 191.5,338.5C 190.167,326.167 190.167,313.833 191.5,301.5 Z"/></g>
<g><path style="opacity:0.763" fill="#6b5997" d="M 486.5,301.5 C 494.323,300.344 502.323,300.177 510.5,301C 511.833,304.333 511.833,307.667 510.5,311C 506.179,311.499 501.846,311.666 497.5,311.5C 497.414,310.504 497.748,309.671 498.5,309C 501.877,308.548 505.211,307.882 508.5,307C 509.747,305.506 509.747,304.006 508.5,302.5C 501.224,301.535 493.891,301.201 486.5,301.5 Z"/></g>
<g><path style="opacity:0.953" fill="#665491" d="M 191.5,301.5 C 199.323,300.344 207.323,300.177 215.5,301C 216.61,304.449 216.61,307.949 215.5,311.5C 210.833,311.5 206.167,311.5 201.5,311.5C 201.5,312.5 201.5,313.5 201.5,314.5C 205.514,314.334 209.514,314.501 213.5,315C 214.833,318.333 214.833,321.667 213.5,325C 209.514,325.499 205.514,325.666 201.5,325.5C 201.5,326.833 201.5,328.167 201.5,329.5C 198.983,327.923 198.983,326.09 201.5,324C 205.152,323.501 208.818,323.335 212.5,323.5C 212.768,320.881 212.435,318.381 211.5,316C 207.179,315.501 202.846,315.334 198.5,315.5C 198.244,313.208 198.577,311.041 199.5,309C 201.812,309.849 206.812,310.349 214.5,310.5C 214.5,307.5 214.5,304.5 214.5,301.5C 206.833,301.5 199.167,301.5 191.5,301.5 Z"/></g>
<g><path style="opacity:0.125" fill="#675991" d="M 367.5,310.5 C 364.189,309.189 361.855,306.855 360.5,303.5C 357.914,302.52 355.247,302.187 352.5,302.5C 352.5,314.5 352.5,326.5 352.5,338.5C 351.34,326.34 351.173,314.007 352,301.5C 355.455,300.209 358.955,300.209 362.5,301.5C 364.445,304.393 366.111,307.393 367.5,310.5 Z"/></g>
<g><path style="opacity:0.999" fill="#513a8b" d="M 363.5,322.5 C 363.217,321.711 362.717,321.044 362,320.5C 361.186,325.02 361.353,329.354 362.5,333.5C 362.643,335.262 362.309,336.929 361.5,338.5C 358.355,339.803 355.355,339.803 352.5,338.5C 352.5,326.5 352.5,314.5 352.5,302.5C 355.247,302.187 357.914,302.52 360.5,303.5C 361.855,306.855 364.189,309.189 367.5,310.5C 368.764,312.27 370.264,313.937 372,315.5C 372.333,310.833 372.667,306.167 373,301.5C 376.333,300.167 379.667,300.167 383,301.5C 383.667,313.833 383.667,326.167 383,338.5C 380.263,339.61 377.429,339.777 374.5,339C 370.219,333.89 366.552,328.39 363.5,322.5 Z"/></g>
<g><path style="opacity:0.999" fill="#5f4c8e" d="M 424.5,337.5 C 424.525,334.821 425.858,333.488 428.5,333.5C 428.443,327.869 426.443,326.702 422.5,330C 418.973,330.808 415.64,330.641 412.5,329.5C 422.874,330.082 426.54,325.415 423.5,315.5C 418.214,310.877 413.214,310.877 408.5,315.5C 409.038,313.883 409.371,312.216 409.5,310.5C 416.964,309.231 423.131,311.231 428,316.5C 428.483,317.448 428.649,318.448 428.5,319.5C 429.675,319.281 430.675,319.614 431.5,320.5C 430.609,321.59 429.609,321.59 428.5,320.5C 427.548,322.045 427.215,323.712 427.5,325.5C 429.5,325.5 431.5,325.5 433.5,325.5C 433.5,321.5 433.5,317.5 433.5,313.5C 432.5,313.5 431.5,313.5 430.5,313.5C 431.178,309.727 429.844,306.894 426.5,305C 423.549,304.904 420.882,304.071 418.5,302.5C 414.624,302.36 410.624,302.86 406.5,304C 404.499,306.325 402.166,308.158 399.5,309.5C 405.686,300.721 414.019,298.221 424.5,302C 436.718,310.583 438.718,321.083 430.5,333.5C 428.736,335.278 426.736,336.611 424.5,337.5 Z"/></g>
<g><path style="opacity:0.008" fill="#ede4fd" d="M 363.5,322.5 C 362.518,325.962 362.185,329.629 362.5,333.5C 361.353,329.354 361.186,325.02 362,320.5C 362.717,321.044 363.217,321.711 363.5,322.5 Z"/></g>
<g><path style="opacity:0.995" fill="#533d8a" d="M 535.5,299.5 C 540.774,299.72 545.274,301.72 549,305.5C 551.291,309.592 550.124,312.425 545.5,314C 543.833,314.667 542.167,314.667 540.5,314C 538.788,311.308 536.788,310.974 534.5,313C 539.061,314.385 543.394,316.218 547.5,318.5C 553.163,325.339 552.83,331.839 546.5,338C 536.192,343.058 528.192,340.725 522.5,331C 524.479,328.58 526.979,326.747 530,325.5C 531.987,327.167 534.154,328.5 536.5,329.5C 538.319,329.658 539.652,328.991 540.5,327.5C 536.421,325.963 532.421,324.129 528.5,322C 520.339,311.167 522.672,303.667 535.5,299.5 Z"/></g>
<g><path style="opacity:0.035" fill="#aca7ce" d="M 300.5,325.5 C 296.5,325.5 292.5,325.5 288.5,325.5C 288.5,329.167 288.5,332.833 288.5,336.5C 287.517,332.702 287.183,328.702 287.5,324.5C 292.032,324.182 296.366,324.515 300.5,325.5 Z"/></g>
<g><path style="opacity:0.999" fill="#5d498d" d="M 399.5,309.5 C 397.688,314.283 397.188,319.283 398,324.5C 401.165,325.939 403.665,327.939 405.5,330.5C 403.98,333.303 404.647,335.47 407.5,337C 413.157,337.499 418.824,337.666 424.5,337.5C 417.302,341.732 410.302,341.232 403.5,336C 396.053,330.597 393.553,323.43 396,314.5C 396.697,312.416 397.864,310.749 399.5,309.5 Z"/></g>
<g><path style="opacity:0.985" fill="#513b8a" d="M 110.5,300.5 C 117.175,300.334 123.842,300.5 130.5,301C 138.224,304.329 140.558,309.996 137.5,318C 143.151,327.693 140.817,334.693 130.5,339C 123.918,339.81 117.418,339.643 111,338.5C 110.5,325.838 110.333,313.171 110.5,300.5 Z M 120.5,325.5 C 123.518,325.335 126.518,325.502 129.5,326C 130.815,327.395 130.481,328.395 128.5,329C 126.167,329.667 123.833,329.667 121.5,329C 120.663,327.989 120.33,326.822 120.5,325.5 Z M 120.5,311.5 C 123.167,311.5 125.833,311.5 128.5,311.5C 128.5,312.5 128.5,313.5 128.5,314.5C 125.833,314.5 123.167,314.5 120.5,314.5C 120.5,313.5 120.5,312.5 120.5,311.5 Z"/></g>
<g><path style="opacity:0.027" fill="#cdcbf8" d="M 178.5,310.5 C 176.052,311.473 173.385,311.806 170.5,311.5C 170.826,320.349 170.493,329.016 169.5,337.5C 169.5,328.5 169.5,319.5 169.5,310.5C 172.5,310.5 175.5,310.5 178.5,310.5 Z"/></g>
<g><path style="opacity:0.588" fill="#695a98" d="M 201.5,329.5 C 206.179,329.334 210.845,329.501 215.5,330C 216.833,333 216.833,336 215.5,339C 207.323,339.823 199.323,339.656 191.5,338.5C 198.508,338.666 205.508,338.5 212.5,338C 214.229,336.211 214.896,334.044 214.5,331.5C 210.818,331.665 207.152,331.499 203.5,331C 202.584,330.722 201.918,330.222 201.5,329.5 Z"/></g>
<g><path style="opacity:0.996" fill="#4b3389" d="M 408.5,315.5 C 406.912,317.527 406.412,319.861 407,322.5C 408.316,325.308 410.15,327.641 412.5,329.5C 415.64,330.641 418.973,330.808 422.5,330C 426.443,326.702 428.443,327.869 428.5,333.5C 425.858,333.488 424.525,334.821 424.5,337.5C 418.824,337.666 413.157,337.499 407.5,337C 404.647,335.47 403.98,333.303 405.5,330.5C 403.665,327.939 401.165,325.939 398,324.5C 397.188,319.283 397.688,314.283 399.5,309.5C 402.166,308.158 404.499,306.325 406.5,304C 410.624,302.86 414.624,302.36 418.5,302.5C 420.882,304.071 423.549,304.904 426.5,305C 429.844,306.894 431.178,309.727 430.5,313.5C 431.5,313.5 432.5,313.5 433.5,313.5C 433.5,317.5 433.5,321.5 433.5,325.5C 431.5,325.5 429.5,325.5 427.5,325.5C 427.215,323.712 427.548,322.045 428.5,320.5C 429.609,321.59 430.609,321.59 431.5,320.5C 430.675,319.614 429.675,319.281 428.5,319.5C 428.649,318.448 428.483,317.448 428,316.5C 423.131,311.231 416.964,309.231 409.5,310.5C 409.371,312.216 409.038,313.883 408.5,315.5 Z"/></g>
<g><path style="opacity:0.102" fill="#a195c8" d="M 497.5,329.5 C 502.167,329.5 506.833,329.5 511.5,329.5C 511.81,332.713 511.477,335.713 510.5,338.5C 510.5,335.833 510.5,333.167 510.5,330.5C 505.968,330.818 501.634,330.485 497.5,329.5 Z"/></g>
<g><path style="opacity:0.11" fill="#aaa0cc" d="M 287.5,302.5 C 284.272,301.586 280.939,301.253 277.5,301.5C 277.5,313.833 277.5,326.167 277.5,338.5C 276.505,326.011 276.171,313.344 276.5,300.5C 280.649,299.92 284.316,300.586 287.5,302.5 Z"/></g>
<g><path style="opacity:0.586" fill="#6f6199" d="M 301.5,301.5 C 304.565,300.182 307.731,300.182 311,301.5C 311.667,313.833 311.667,326.167 311,338.5C 308,339.833 305,339.833 302,338.5C 300.646,334.637 300.146,330.637 300.5,326.5C 301.267,327.172 301.934,328.005 302.5,329C 300.916,334.984 303.249,337.817 309.5,337.5C 309.5,325.5 309.5,313.5 309.5,301.5C 306.833,301.5 304.167,301.5 301.5,301.5 Z"/></g>
<g><path style="opacity:0.075" fill="#7c6ca2" d="M 485.5,326.5 C 486.196,330.231 486.862,334.065 487.5,338C 495.159,338.5 502.826,338.666 510.5,338.5C 502.677,339.656 494.677,339.823 486.5,339C 485.536,334.934 485.203,330.767 485.5,326.5 Z"/></g>
</svg>
