<?xml version="1.0" standalone="no"?>
<!DOCTYPE svg PUBLIC "-//W3C//DTD SVG 20010904//EN"
 "http://www.w3.org/TR/2001/REC-SVG-20010904/DTD/svg10.dtd">
<svg version="1.0" xmlns="http://www.w3.org/2000/svg"
 width="980.000000pt" height="980.000000pt" viewBox="0 0 980.000000 980.000000"
 preserveAspectRatio="xMidYMid meet">

<g transform="translate(0.000000,980.000000) scale(0.100000,-0.100000)"
fill="#000000" stroke="none">
<path d="M3558 5905 l-3 -1046 -64 107 c-189 315 -326 656 -381 951 -23 122
-25 72 -4 -79 62 -449 276 -946 609 -1413 163 -230 410 -511 612 -698 580
-537 1215 -883 1818 -992 50 -9 164 -19 255 -22 342 -11 564 53 725 212 83 82
122 139 164 239 77 186 80 467 7 786 -21 91 -65 250 -69 250 -1 0 -2 -71 -3
-158 -1 -134 -5 -173 -28 -267 -67 -275 -226 -481 -456 -591 -80 -39 -94 -44
-210 -75 -94 -26 -356 -37 -481 -20 -89 12 -292 52 -287 57 2 1 53 8 113 14
241 25 485 90 649 172 215 108 351 242 441 433 69 146 80 201 80 415 0 206
-11 271 -70 412 -91 217 -285 400 -525 497 -41 16 -75 32 -75 35 0 3 34 28 75
55 212 139 356 357 399 605 16 89 13 285 -5 374 -72 352 -354 607 -796 721
-255 66 -225 64 -1410 68 l-1078 4 -2 -1046z m1911 375 c363 -38 543 -218 502
-502 -30 -219 -186 -340 -485 -378 -44 -5 -298 -10 -563 -10 l-483 0 0 450 0
450 468 0 c257 0 509 -5 561 -10z m159 -1540 c256 -27 425 -116 495 -260 38
-78 54 -191 40 -281 -30 -188 -142 -299 -368 -361 -78 -22 -97 -22 -682 -26
l-603 -3 -35 28 -35 28 0 443 0 442 548 0 c301 0 589 -5 640 -10z"/>
</g>
</svg>
